<svg width="24.000000" height="24.000000" viewBox="0 0 24 24" fill="none" xmlns="http://www.w3.org/2000/svg" xmlns:xlink="http://www.w3.org/1999/xlink">
	<desc>
			Created with Pixso.
	</desc>
	<defs>
		<clipPath id="clip161_181">
			<rect width="24.000000" height="24.000000" fill="white" fill-opacity="0"/>
		</clipPath>
	</defs>
	<g clip-path="url(#clip161_181)">
		<g opacity="0.000000">
			<rect width="24.000000" height="24.000000" fill="#000000" fill-opacity="1.000000"/>
		</g>
		<path d="M19.01 11.26C19.5 11.26 19.95 11.13 20.37 10.88C20.79 10.63 21.12 10.3 21.37 9.88C21.61 9.45 21.74 8.99 21.74 8.5L21.74 4.98C21.74 4.49 21.61 4.04 21.37 3.62C21.12 3.2 20.79 2.87 20.37 2.63C19.95 2.38 19.5 2.26 19.01 2.26L15.5 2.26C15 2.26 14.54 2.38 14.12 2.63C13.7 2.87 13.36 3.2 13.12 3.62C12.86 4.04 12.74 4.49 12.74 4.98L12.74 8.5C12.74 8.99 12.86 9.45 13.12 9.88C13.36 10.3 13.7 10.63 14.12 10.88C14.54 11.13 15 11.26 15.5 11.26L19.01 11.26ZM19.01 3.73C19.34 3.73 19.63 3.86 19.87 4.12C20.13 4.36 20.26 4.65 20.26 4.98L20.26 8.5C20.26 8.84 20.13 9.13 19.87 9.38C19.63 9.62 19.34 9.73 19.01 9.73L15.5 9.73C15.15 9.73 14.86 9.62 14.62 9.38C14.38 9.13 14.26 8.84 14.26 8.5L14.26 4.98C14.26 4.65 14.38 4.36 14.62 4.12C14.86 3.86 15.15 3.73 15.5 3.73L19.01 3.73ZM8.5 21.74C8.99 21.74 9.45 21.61 9.88 21.37C10.3 21.12 10.63 20.79 10.88 20.38C11.13 19.95 11.26 19.5 11.26 19.01L11.26 15.5C11.26 15 11.13 14.54 10.88 14.12C10.63 13.7 10.3 13.36 9.88 13.12C9.45 12.86 8.99 12.74 8.5 12.74L4.98 12.74C4.49 12.74 4.04 12.86 3.62 13.12C3.2 13.36 2.87 13.7 2.63 14.12C2.38 14.54 2.26 15 2.26 15.5L2.26 19.01C2.26 19.5 2.38 19.95 2.63 20.38C2.87 20.79 3.2 21.12 3.62 21.37C4.04 21.61 4.49 21.74 4.98 21.74L8.5 21.74ZM8.5 14.26C8.84 14.26 9.14 14.38 9.38 14.62C9.62 14.86 9.73 15.15 9.73 15.5L9.73 19.01C9.73 19.34 9.62 19.63 9.38 19.88C9.14 20.13 8.84 20.26 8.5 20.26L4.98 20.26C4.65 20.26 4.36 20.13 4.12 19.88C3.86 19.63 3.73 19.34 3.73 19.01L3.73 15.5C3.73 15.15 3.86 14.86 4.12 14.62C4.36 14.38 4.65 14.26 4.98 14.26L8.5 14.26ZM8.5 11.26C8.99 11.26 9.45 11.13 9.88 10.88C10.3 10.63 10.63 10.3 10.88 9.88C11.13 9.45 11.26 8.99 11.26 8.5L11.26 4.98C11.26 4.49 11.13 4.04 10.88 3.62C10.63 3.2 10.3 2.87 9.88 2.63C9.45 2.38 8.99 2.26 8.5 2.26L4.98 2.26C4.49 2.26 4.04 2.38 3.62 2.63C3.2 2.87 2.87 3.2 2.63 3.62C2.38 4.04 2.26 4.49 2.26 4.98L2.26 8.5C2.26 8.99 2.38 9.45 2.63 9.88C2.87 10.3 3.2 10.63 3.62 10.88C4.04 11.13 4.49 11.26 4.98 11.26L8.5 11.26ZM8.5 3.73C8.84 3.73 9.14 3.86 9.38 4.12C9.62 4.36 9.73 4.65 9.73 4.98L9.73 8.5C9.73 8.84 9.62 9.13 9.38 9.38C9.14 9.62 8.84 9.73 8.5 9.73L4.98 9.73C4.65 9.73 4.36 9.62 4.12 9.38C3.86 9.13 3.73 8.84 3.73 8.5L3.73 4.98C3.73 4.65 3.86 4.36 4.12 4.12C4.36 3.86 4.65 3.73 4.98 3.73L8.5 3.73ZM5.59 7.89L7.9 7.89L7.9 5.59L5.59 5.59L5.59 7.89ZM5.59 18.4L7.9 18.4L7.9 16.1L5.59 16.1L5.59 18.4ZM16.01 18.5L18.5 18.5L18.5 16.01L16.01 16.01L16.01 18.5ZM13.1 15.6L15.6 15.6L15.6 13.1L13.1 13.1L13.1 15.6ZM18.91 15.6L21.43 15.6L21.43 13.1L18.91 13.1L18.91 15.6ZM13.1 21.4L15.6 21.4L15.6 18.9L13.1 18.9L13.1 21.4ZM18.91 21.4L21.43 21.4L21.43 18.9L18.91 18.9L18.91 21.4ZM16.1 7.89L18.41 7.89L18.41 5.59L16.1 5.59L16.1 7.89Z" fill="#FFFFFF" fill-opacity="1.000000" fill-rule="nonzero"/>
	</g>
</svg>
