<svg width="24.000000" height="24.000000" viewBox="0 0 24 24" fill="none" xmlns="http://www.w3.org/2000/svg" xmlns:xlink="http://www.w3.org/1999/xlink">
	<desc>
			Created with Pixso.
	</desc>
	<defs>
		<clipPath id="clip103_175">
			<rect width="24.000000" height="24.000000" fill="white" fill-opacity="0"/>
		</clipPath>
	</defs>
	<g clip-path="url(#clip103_175)">
		<g opacity="0.000000">
			<rect width="24.000000" height="24.000000" fill="#000000" fill-opacity="1.000000"/>
		</g>
		<mask id="mask103_179" mask-type="alpha" maskUnits="userSpaceOnUse" x="0.000000" y="0.000000" width="24.000000" height="24.000000">
			<rect width="24.000000" height="24.000000" fill="#FFFFFF" fill-opacity="1.000000"/>
			<path d="M12 9.96C12.35 9.96 12.65 10.08 12.89 10.32C13.13 10.56 13.25 10.85 13.25 11.21C13.25 11.56 13.13 11.86 12.89 12.1C12.65 12.34 12.35 12.46 12 12.46C11.64 12.46 11.35 12.34 11.11 12.1C10.87 11.86 10.75 11.56 10.75 11.21C10.75 10.85 10.87 10.56 11.11 10.32C11.35 10.08 11.64 9.96 12 9.96Z" fill="#000000" fill-opacity="1.000000" fill-rule="nonzero"/>
			<path d="M9.07 13.44C8.87 13.48 8.71 13.47 8.58 13.39C8.44 13.31 8.34 13.18 8.28 13.01C8.12 12.47 8.04 11.85 8.04 11.21C8.04 10.61 8.11 10.02 8.26 9.43C8.3 9.25 8.41 9.12 8.57 9.04C8.72 8.94 8.89 8.92 9.07 8.98C9.25 9.02 9.38 9.13 9.47 9.29C9.55 9.45 9.57 9.61 9.53 9.77C9.4 10.2 9.34 10.67 9.34 11.18C9.34 11.74 9.4 12.22 9.53 12.62C9.56 12.73 9.56 12.85 9.53 12.97C9.49 13.09 9.44 13.19 9.35 13.28C9.28 13.37 9.18 13.42 9.07 13.44ZM14.93 13.44C14.75 13.39 14.61 13.29 14.53 13.14C14.44 12.98 14.42 12.82 14.47 12.65C14.58 12.2 14.64 11.72 14.64 11.21C14.64 10.69 14.58 10.21 14.47 9.77C14.42 9.59 14.44 9.42 14.53 9.28C14.61 9.12 14.75 9.02 14.93 8.98C15.1 8.92 15.26 8.95 15.42 9.05C15.57 9.14 15.67 9.28 15.72 9.46C15.88 10.1 15.96 10.68 15.96 11.21C15.96 11.75 15.88 12.34 15.72 12.98C15.67 13.17 15.56 13.31 15.4 13.39C15.22 13.47 15.07 13.48 14.93 13.44Z" fill="#000000" fill-opacity="1.000000" fill-rule="nonzero"/>
			<path d="M6.95 14.98C6.81 15.06 6.65 15.08 6.46 15.05C6.28 15.01 6.14 14.92 6.05 14.76C5.36 13.67 5.02 12.49 5.02 11.21C5.02 10.58 5.1 9.96 5.28 9.35C5.45 8.75 5.7 8.18 6.05 7.65C6.14 7.51 6.28 7.41 6.45 7.37C6.63 7.33 6.8 7.36 6.95 7.45C7.1 7.55 7.2 7.69 7.23 7.85C7.28 8.02 7.25 8.18 7.15 8.34C6.58 9.26 6.31 10.22 6.31 11.23C6.31 12.22 6.58 13.17 7.15 14.09C7.25 14.23 7.28 14.39 7.23 14.57C7.2 14.74 7.1 14.88 6.95 14.98ZM17.04 14.95C16.87 14.85 16.78 14.72 16.75 14.56C16.71 14.38 16.75 14.22 16.85 14.06C17.39 13.16 17.66 12.21 17.66 11.21C17.66 10.17 17.39 9.21 16.85 8.34C16.75 8.18 16.71 8.02 16.75 7.84C16.78 7.66 16.87 7.53 17.04 7.43C17.2 7.34 17.36 7.31 17.53 7.35C17.69 7.39 17.83 7.48 17.95 7.62C18.27 8.15 18.52 8.72 18.7 9.33C18.87 9.94 18.95 10.56 18.95 11.18C18.95 11.8 18.87 12.42 18.7 13.03C18.52 13.63 18.27 14.2 17.95 14.74C17.83 14.91 17.69 15.02 17.53 15.06C17.36 15.1 17.2 15.06 17.04 14.95Z" fill="#000000" fill-opacity="1.000000" fill-rule="nonzero"/>
		</mask>
		<g mask="url(#mask103_179)">
			<path d="M1.78 11.35C1.78 12.59 2.08 13.8 2.68 14.98C3.28 16.14 4.1 17.16 5.16 18.02C5.35 18.16 5.4 18.42 5.3 18.79C5.2 19.18 5.04 19.68 4.8 20.29L4.66 20.64C4.6 20.76 4.58 20.9 4.59 21.05C4.6 21.19 4.65 21.31 4.75 21.41C4.86 21.55 4.96 21.63 5.06 21.66C5.16 21.68 5.29 21.68 5.46 21.65C6.14 21.5 6.7 21.34 7.16 21.17C7.62 20.99 8.09 20.77 8.59 20.52C8.73 20.44 8.96 20.31 9.12 20.24C9.28 20.17 9.41 20.12 9.53 20.11C10.31 20.27 11.13 20.35 12 20.35C13.84 20.35 15.54 19.94 17.11 19.14C18.67 18.33 19.92 17.24 20.86 15.86C21.78 14.48 22.25 12.98 22.25 11.35C22.25 9.71 21.78 8.21 20.86 6.83C19.92 5.44 18.67 4.34 17.11 3.54C15.54 2.73 13.84 2.33 12 2.33C10.16 2.33 8.45 2.73 6.89 3.54C5.32 4.34 4.08 5.44 3.16 6.83C2.23 8.21 1.78 9.71 1.78 11.35Z" fill="#757575" fill-opacity="1.000000" fill-rule="nonzero"/>
		</g>
	</g>
</svg>
