<svg width="24.000000" height="24.000000" viewBox="0 0 24 24" fill="none" xmlns="http://www.w3.org/2000/svg" xmlns:xlink="http://www.w3.org/1999/xlink">
	<desc>
			Created with Pixso.
	</desc>
	<defs>
		<clipPath id="clip16_5">
			<rect width="24.000000" height="24.000000" fill="white" fill-opacity="0"/>
		</clipPath>
	</defs>
	<g clip-path="url(#clip16_5)">
		<g opacity="0.000000">
			<rect width="24.000000" height="24.000000" fill="#000000" fill-opacity="1.000000"/>
		</g>
		<path d="M20.95 4.7C20.15 3.9 19.28 3.38 18.35 3.16C17.41 2.92 16.5 2.94 15.62 3.2C14.74 3.46 13.99 3.91 13.37 4.54L4.51 13.39L7.32 16.2L15.91 7.61C16.19 7.4 16.51 7.3 16.86 7.32C17.2 7.33 17.5 7.47 17.76 7.73C18.03 8 18.17 8.33 18.17 8.71C18.17 9.09 18.03 9.42 17.76 9.7L9.29 18.17L12.1 20.98L20.95 12.12C21.62 11.44 22.07 10.66 22.31 9.77C22.54 8.87 22.54 7.97 22.31 7.07C22.07 6.16 21.62 5.37 20.95 4.7ZM10.39 4.32C9.71 3.72 8.94 3.33 8.08 3.13C7.2 2.93 6.33 2.95 5.47 3.2C4.61 3.45 3.86 3.9 3.22 4.54L2.88 4.9C2.27 5.55 1.86 6.3 1.66 7.16C1.44 8.02 1.45 8.87 1.68 9.73C1.9 10.59 2.32 11.34 2.93 12L10.39 4.32Z" fill="#FF9019" fill-opacity="1.000000" fill-rule="nonzero"/>
	</g>
</svg>
