<svg width="144.000000" height="144.000000" viewBox="0 0 144 144" fill="none" xmlns="http://www.w3.org/2000/svg" xmlns:xlink="http://www.w3.org/1999/xlink">
	<desc>
			Created with Pixso.
	</desc>
	<defs>
		<clipPath id="clip143_240">
			<rect width="144.000000" height="144.000000" fill="white" fill-opacity="0"/>
		</clipPath>
	</defs>
	<g clip-path="url(#clip143_240)">
		<path d="M115.01 5.5L135.25 5.5C139.67 5.5 143.25 9.08 143.25 13.5L143.25 28.13C143.25 30.34 141.46 32.13 139.25 32.13L115.01 32.13L115.01 5.5Z" fill="#BAB9B9" fill-opacity="1.000000" fill-rule="evenodd"/>
		<path d="M123.08 135.5L123.08 125.5L123.08 33.42L123.08 13.5C123.08 9.08 126.66 5.5 131.08 5.5L133.57 5.5L31.01 5.5C26.59 5.5 23.01 9.08 23.01 13.5L23.01 139.5C23.01 141.7 24.8 143.5 27.01 143.5L115.08 143.5C119.5 143.5 123.08 139.91 123.08 135.5Z" fill="#FFFFFF" fill-opacity="1.000000" fill-rule="evenodd"/>
		<path d="M123.08 125.5L123.08 33.42L123.08 13.5C123.08 9.08 126.66 5.5 131.08 5.5L133.57 5.5L31.01 5.5C26.59 5.5 23.01 9.08 23.01 13.5L23.01 139.5C23.01 141.7 24.8 143.5 27.01 143.5L115.08 143.5C119.5 143.5 123.08 139.91 123.08 135.5L123.08 125.5Z" stroke="#000000" stroke-opacity="0" stroke-width="1.000000"/>
		<path d="M114.2 143.5L9.22 143.5C4.8 143.5 1.22 139.91 1.22 135.5L1.22 128.93C1.22 126.72 3.01 124.93 5.22 124.93L99.87 124.93C102.08 124.93 103.87 126.72 103.87 128.93L103.87 135.49C103.86 139.9 107.44 143.49 111.86 143.5L114.2 143.5Z" fill="#D1D1D1" fill-opacity="1.000000" fill-rule="evenodd"/>
		<rect x="39.654175" y="30.210449" width="14.333332" height="14.333332" fill="#D1D1D1" fill-opacity="1.000000"/>
		<rect x="39.654175" y="63.298340" width="14.333332" height="14.333332" fill="#D1D1D1" fill-opacity="1.000000"/>
		<rect x="39.654175" y="95.000000" width="14.333332" height="14.333332" fill="#D1D1D1" fill-opacity="1.000000"/>
		<path d="M114.45 97.32L120.1 91.66L139.9 111.46C141.46 113.02 141.46 115.55 139.9 117.12C138.34 118.68 135.81 118.68 134.25 117.12L114.45 97.32Z" fill="#FF9019" fill-opacity="1.000000" fill-rule="evenodd"/>
		<path d="M120.1 91.66L139.9 111.46C141.46 113.02 141.46 115.55 139.9 117.12C138.34 118.68 135.81 118.68 134.25 117.12L114.45 97.32L120.1 91.66Z" stroke="#000000" stroke-opacity="0" stroke-width="1.000000"/>
		<ellipse rx="31.500000" ry="31.436470" transform="matrix(0.707107 -0.707107 0.707107 0.707107 97.6669 76.2085)" fill="#D1D1D1" fill-opacity="1.000000"/>
		<ellipse rx="31.500000" ry="31.436470" transform="matrix(0.707107 -0.707107 0.707107 0.707107 97.6669 76.2085)" stroke="#000000" stroke-opacity="0" stroke-width="1.000000"/>
		<circle r="23.500000" transform="matrix(0.707107 -0.707107 0.707107 0.707107 98.0001 76)" fill="#FFFFFF" fill-opacity="1.000000"/>
		<circle r="23.500000" transform="matrix(0.707107 -0.707107 0.707107 0.707107 98.0001 76)" stroke="#000000" stroke-opacity="0" stroke-width="1.000000"/>
		<line x1="75.582520" y1="70.868408" x2="83.136719" y2="70.868408" stroke="#D1D1D1" stroke-opacity="1.000000" stroke-width="1.000000"/>
		<line x1="65.785767" y1="36.973633" x2="100.487549" y2="36.973633" stroke="#D1D1D1" stroke-opacity="1.000000" stroke-width="1.000000"/>
		<line x1="65.785889" y1="102.000000" x2="100.487671" y2="102.000000" stroke="#D1D1D1" stroke-opacity="1.000000" stroke-width="1.000000"/>
	</g>
</svg>
